<?xml version="1.0" encoding="UTF-8"?>
<!DOCTYPE svg PUBLIC "-//W3C//DTD SVG 1.1//EN" "http://www.w3.org/Graphics/SVG/1.1/DTD/svg11.dtd">
<!-- Creator: CorelDRAW -->
<svg xmlns="http://www.w3.org/2000/svg" xml:space="preserve" version="1.1" style="shape-rendering:geometricPrecision; text-rendering:geometricPrecision; image-rendering:optimizeQuality; fill-rule:evenodd; clip-rule:evenodd"
viewBox="0 0 42000 29700"
 xmlns:xlink="http://www.w3.org/1999/xlink"
 xmlns:xodm="http://www.corel.com/coreldraw/odm/2003">
 <defs>
  <style type="text/css">
   <![CDATA[
    .fil0 {fill:#034B93}
   ]]>
  </style>
 </defs>
 <g id="Слой_x0020_1">
  <metadata id="CorelCorpID_0Corel-Layer"/>
  <path class="fil0" d="M5648.29 11587.29l1332.07 0 0 3128.02c736.49,-1004.32 2807.28,-780.14 2807.28,1097.35l0 2209.71 -1332.06 0 0 -2209.71c0,-1068.77 -1475.22,-951.74 -1475.22,156.95l0 2052.76 -1332.07 0 0 -6435.08zm11634.87 6286.49c-103.91,-317.89 -194.46,-585.95 -298.36,-903.84 -428.28,167.5 -581.48,-38.87 -600.05,-432.06l0 -1386.47 751.66 0 0 -922.99 -751.66 0 0 -1445.3 -1332.06 0 0 1445.3 -555.1 0 0 922.99 555.1 0 0 1386.47c0,1210.88 769.18,1961.07 2230.47,1335.9zm1228.72 -2237.36l1611.83 0c-101.44,-388.12 -359.11,-722.11 -787.07,-722.11 -377.25,0 -699.1,300.18 -824.76,722.11zm-40.59 604.63c78.01,515.07 435.76,904.29 865.35,904.29 380.03,8.82 688.57,-104.15 952.32,-429.05l902.24 440.76c-380.17,573.49 -1068.45,956.74 -1854.59,956.74 -1197.48,0 -2168.32,-889.05 -2168.32,-1985.68 0,-1096.63 970.84,-1985.68 2168.32,-1985.68 1275.47,0 1964.09,1130.25 1933.77,2098.62l-2799.09 0zm14001.09 -2098.62c1277.69,0 2313.54,889.05 2313.54,1985.68 0,1096.63 -1035.85,1985.68 -2313.54,1985.68 -1277.68,0 -2313.53,-889.05 -2313.53,-1985.68 0,-1096.63 1035.85,-1985.68 2313.53,-1985.68zm0 1040.91c522.9,0 946.81,423 946.81,944.77 0,521.77 -423.91,944.77 -946.81,944.77 -522.89,0 -946.8,-423 -946.8,-944.77 0,-521.77 423.91,-944.77 946.8,-944.77zm-3845.03 629.32l0 2209.71 1332.06 0 0 -2209.71c0,-1910.41 -2095.43,-2100.87 -2814.41,-914.82 -480.94,-893.66 -1678.8,-956.35 -2356.79,-310.1l0 -392.43 -1332.07 0 0 3827.06 1332.07 0 0 -2226.64c0,-1013.91 1233.38,-823.85 1233.38,16.93l0 2209.71 1332.06 0 0 -2209.71c0,-1017.12 1273.7,-895 1273.7,0zm-16330.27 -1670.23c1277.68,0 2313.53,889.05 2313.53,1985.68 0,1096.63 -1035.85,1985.68 -2313.53,1985.68 -1277.69,0 -2313.54,-889.05 -2313.54,-1985.68 0,-1096.63 1035.85,-1985.68 2313.54,-1985.68zm0 1040.91c522.89,0 946.8,423 946.8,944.77 0,521.77 -423.91,944.77 -946.8,944.77 -522.9,0 -946.81,-423 -946.81,-944.77 0,-521.77 423.91,-944.77 946.81,-944.77zm22710.96 -3596.05l1332.07 0 0 6435.08 -1332.07 0 0 -6435.08zm-13451.78 0l1332.06 0 0 6435.08 -1332.06 0 0 -6435.08z"/>
 </g>
</svg>
